<svg width="386" height="522" viewBox="0 0 386 522" fill="none" xmlns="http://www.w3.org/2000/svg">
<path d="M122.373 322.607L123.998 321.442L122.373 322.607ZM106.363 384.224L104.653 383.188L106.363 384.224ZM2 437.324L1.65875 435.354C0.700114 435.52 0 436.351 0 437.324H2ZM2 520H0C0 521.105 0.89543 522 2 522L2 520ZM384 520V522C385.105 522 386 521.105 386 520H384ZM384 436.322H386C386 435.365 385.321 434.541 384.381 434.359L384 436.322ZM286 384.224L284.277 385.239L286 384.224ZM271.57 322.607L269.961 321.421L271.57 322.607ZM119.677 315.254C119.056 314.341 117.812 314.104 116.899 314.725C115.985 315.347 115.748 316.591 116.37 317.504L119.677 315.254ZM108.077 304.642C108.653 305.584 109.884 305.882 110.826 305.306C111.769 304.731 112.067 303.5 111.491 302.557L108.077 304.642ZM103.943 289.479C103.414 288.509 102.2 288.151 101.23 288.679C100.26 289.207 99.9015 290.422 100.43 291.392L103.943 289.479ZM93.4544 277.77C93.9324 278.766 95.1271 279.186 96.1229 278.708C97.1187 278.23 97.5384 277.035 97.0604 276.039L93.4544 277.77ZM90.8936 262.263C90.4699 261.243 89.2995 260.759 88.2794 261.183C87.2593 261.606 86.7758 262.777 87.1995 263.797L90.8936 262.263ZM81.7296 249.49C82.0938 250.533 83.2344 251.083 84.2772 250.719C85.32 250.355 85.8702 249.214 85.506 248.171L81.7296 249.49ZM80.9774 233.792C80.6792 232.729 79.5753 232.108 78.5118 232.406C77.4482 232.705 76.8277 233.808 77.1259 234.872L80.9774 233.792ZM73.4871 219.973C73.7116 221.054 74.7703 221.749 75.8518 221.525C76.9333 221.3 77.6281 220.241 77.4036 219.16L73.4871 219.973ZM74.8961 204.322C74.7542 203.226 73.7511 202.454 72.6557 202.595C71.5603 202.737 70.7874 203.741 70.9293 204.836L74.8961 204.322ZM69.5839 189.529C69.6336 190.632 70.5685 191.486 71.672 191.437C72.7754 191.387 73.6296 190.452 73.5798 189.348L69.5839 189.529ZM73.5185 174.319C73.5506 173.215 72.6817 172.294 71.5776 172.261C70.4735 172.229 69.5523 173.098 69.5202 174.202L73.5185 174.319ZM70.414 158.961C70.3166 160.061 71.1296 161.032 72.2299 161.13C73.3302 161.227 74.3011 160.414 74.3984 159.314L70.414 158.961ZM76.1726 144.403C76.3364 143.31 75.5837 142.292 74.4914 142.128C73.399 141.964 72.3807 142.717 72.2168 143.809L76.1726 144.403ZM74.9497 128.79C74.7178 129.87 75.4054 130.934 76.4854 131.165C77.5653 131.397 78.6287 130.71 78.8606 129.63L74.9497 128.79ZM82.486 115.053C82.7876 113.991 82.1707 112.885 81.1081 112.583C80.0455 112.282 78.9396 112.899 78.638 113.961L82.486 115.053ZM83.3053 99.41C82.932 100.45 83.472 101.595 84.5116 101.968C85.5511 102.342 86.6965 101.802 87.0699 100.762L83.3053 99.41ZM92.6405 86.8381C93.0879 85.8282 92.632 84.6468 91.6221 84.1993C90.6123 83.7519 89.4309 84.2078 88.9834 85.2177L92.6405 86.8381ZM95.7098 71.4809C95.1855 72.4531 95.5487 73.6663 96.5209 74.1906C97.4931 74.7148 98.7063 74.3517 99.2305 73.3795L95.7098 71.4809ZM106.877 60.5061C107.481 59.5813 107.22 58.342 106.296 57.738C105.371 57.1339 104.132 57.394 103.528 58.3188L106.877 60.5061ZM112.482 45.8806C111.796 46.7457 111.94 48.0038 112.805 48.6905C113.671 49.3772 114.929 49.2325 115.615 48.3673L112.482 45.8806ZM125.478 37.1506C126.249 36.3603 126.234 35.094 125.444 34.3223C124.654 33.5506 123.388 33.5657 122.616 34.356L125.478 37.1506ZM133.955 23.984C133.098 24.6805 132.967 25.9401 133.664 26.7974C134.36 27.6547 135.62 27.7851 136.477 27.0886L133.955 23.984ZM148.591 18.4615C149.531 17.8814 149.823 16.6491 149.243 15.7091C148.663 14.7692 147.43 14.4774 146.49 15.0575L148.591 18.4615ZM160.154 7.91161C159.14 8.35026 158.674 9.52766 159.113 10.5414C159.551 11.5551 160.729 12.0213 161.742 11.5827L160.154 7.91161ZM175.756 6.7772C176.826 6.50357 177.472 5.41422 177.198 4.34408C176.924 3.27395 175.835 2.62825 174.765 2.90189L175.756 6.7772ZM190.008 0.324407C188.907 0.416983 188.09 1.38431 188.183 2.48499C188.275 3.58568 189.243 4.40291 190.343 4.31033L190.008 0.324407ZM205.144 4.31034C206.245 4.40291 207.212 3.58568 207.305 2.48499C207.397 1.38431 206.58 0.416984 205.48 0.324408L205.144 4.31034ZM220.723 2.90189C219.653 2.62826 218.563 3.27395 218.29 4.34409C218.016 5.41423 218.662 6.50357 219.732 6.77721L220.723 2.90189ZM233.745 11.5827C234.759 12.0213 235.936 11.5551 236.375 10.5414C236.814 9.52767 236.347 8.35027 235.334 7.91161L233.745 11.5827ZM248.997 15.0575C248.057 14.4774 246.825 14.7692 246.245 15.7092C245.665 16.6491 245.957 17.8814 246.897 18.4615L248.997 15.0575ZM259.01 27.0886C259.868 27.7851 261.127 27.6547 261.824 26.7974C262.52 25.9401 262.39 24.6805 261.533 23.984L259.01 27.0886ZM272.872 34.356C272.1 33.5657 270.834 33.5506 270.043 34.3223C269.253 35.094 269.238 36.3603 270.01 37.1506L272.872 34.356ZM279.872 48.3673C280.559 49.2325 281.817 49.3772 282.682 48.6905C283.547 48.0038 283.692 46.7457 283.005 45.8806L279.872 48.3673ZM291.96 58.3187C291.356 57.394 290.117 57.1339 289.192 57.7379C288.267 58.342 288.007 59.5813 288.611 60.5061L291.96 58.3187ZM296.257 73.3795C296.781 74.3517 297.994 74.7148 298.967 74.1905C299.939 73.6663 300.302 72.4531 299.778 71.4809L296.257 73.3795ZM306.504 85.2177C306.057 84.2078 304.875 83.7519 303.865 84.1993C302.856 84.6468 302.4 85.8282 302.847 86.8381L306.504 85.2177ZM308.418 100.762C308.791 101.802 309.936 102.342 310.976 101.968C312.016 101.595 312.556 100.45 312.182 99.41L308.418 100.762ZM316.85 113.961C316.548 112.899 315.442 112.282 314.379 112.583C313.317 112.885 312.7 113.991 313.002 115.053L316.85 113.961ZM316.627 129.63C316.859 130.71 317.922 131.397 319.002 131.165C320.082 130.934 320.77 129.87 320.538 128.79L316.627 129.63ZM323.271 143.809C323.107 142.717 322.089 141.964 320.996 142.128C319.904 142.292 319.151 143.31 319.315 144.403L323.271 143.809ZM321.089 159.314C321.187 160.414 322.157 161.227 323.258 161.13C324.358 161.032 325.171 160.061 325.074 158.961L321.089 159.314ZM325.967 174.202C325.935 173.098 325.014 172.229 323.91 172.261C322.806 172.294 321.937 173.215 321.969 174.319L325.967 174.202ZM321.901 189.377C321.849 190.48 322.702 191.417 323.805 191.468C324.908 191.52 325.845 190.667 325.896 189.564L321.901 189.377ZM324.495 204.936C324.642 203.841 323.874 202.835 322.779 202.688C321.685 202.541 320.678 203.309 320.531 204.403L324.495 204.936ZM317.925 219.284C317.693 220.364 318.38 221.428 319.46 221.66C320.54 221.892 321.603 221.205 321.836 220.125L317.925 219.284ZM318.059 235.06C318.367 233.999 317.756 232.89 316.696 232.582C315.635 232.274 314.525 232.884 314.217 233.945L318.059 235.06ZM309.528 248.337C309.153 249.376 309.691 250.522 310.73 250.897C311.769 251.272 312.916 250.734 313.291 249.695L309.528 248.337ZM307.637 264.002C308.073 262.987 307.603 261.811 306.588 261.375C305.573 260.94 304.397 261.409 303.961 262.424L307.637 264.002ZM297.602 276.182C297.112 277.172 297.517 278.372 298.506 278.862C299.496 279.353 300.696 278.948 301.186 277.958L297.602 276.182ZM294.008 291.547C294.549 290.584 294.206 289.365 293.243 288.824C292.28 288.284 291.061 288.626 290.52 289.589L294.008 291.547ZM282.769 302.622C282.181 303.557 282.463 304.792 283.398 305.38C284.333 305.968 285.567 305.686 286.155 304.751L282.769 302.622ZM277.659 317.557C278.292 316.652 278.071 315.405 277.166 314.772C276.261 314.138 275.014 314.359 274.381 315.264L277.659 317.557ZM125.656 330.423C126.324 331.303 127.579 331.474 128.458 330.806C129.338 330.138 129.509 328.883 128.841 328.003L125.656 330.423ZM139.068 340.694C138.35 339.855 137.087 339.757 136.248 340.475C135.409 341.194 135.311 342.456 136.029 343.295L139.068 340.694ZM147.202 355.517C147.975 356.306 149.241 356.319 150.03 355.546C150.819 354.773 150.832 353.506 150.059 352.717L147.202 355.517ZM161.883 363.849C161.045 363.128 159.783 363.223 159.062 364.06C158.342 364.898 158.436 366.16 159.274 366.881L161.883 363.849ZM172.525 376.998C173.447 377.606 174.687 377.351 175.295 376.429C175.903 375.507 175.649 374.267 174.727 373.659L172.525 376.998ZM188.839 380.867C187.789 380.522 186.659 381.092 186.313 382.141C185.967 383.19 186.537 384.321 187.586 384.666L188.839 380.867ZM204.989 384.652C206.039 384.308 206.611 383.178 206.266 382.129C205.922 381.079 204.792 380.507 203.743 380.852L204.989 384.652ZM218.059 373.626C217.132 374.227 216.869 375.465 217.47 376.392C218.071 377.319 219.309 377.582 220.236 376.981L218.059 373.626ZM233.716 366.881C234.56 366.17 234.668 364.908 233.956 364.063C233.245 363.219 231.983 363.111 231.138 363.822L233.716 366.881ZM243.218 352.702C242.435 353.482 242.433 354.748 243.213 355.531C243.993 356.313 245.259 356.315 246.042 355.535L243.218 352.702ZM257.483 343.324C258.212 342.494 258.13 341.23 257.3 340.501C256.47 339.773 255.206 339.855 254.477 340.685L257.483 343.324ZM264.979 327.989C264.3 328.86 264.455 330.117 265.326 330.796C266.197 331.476 267.454 331.321 268.133 330.45L264.979 327.989ZM119.536 330.315C119.398 331.411 120.175 332.411 121.271 332.549C122.367 332.687 123.367 331.91 123.505 330.814L119.536 330.315ZM120.98 346.773C121.189 345.688 120.478 344.64 119.394 344.432C118.309 344.223 117.261 344.934 117.052 346.019L120.98 346.773ZM113.445 361.463C113.145 362.526 113.764 363.631 114.827 363.931C115.89 364.231 116.995 363.612 117.294 362.549L113.445 361.463ZM111.866 377.927C112.315 376.918 111.862 375.736 110.853 375.286C109.844 374.837 108.661 375.29 108.212 376.299L111.866 377.927ZM100.494 389.084C99.8002 389.943 99.934 391.203 100.793 391.897C101.652 392.591 102.912 392.457 103.606 391.598L100.494 389.084ZM92.7093 402.45C93.5622 401.748 93.6846 400.487 92.9827 399.634C92.2808 398.781 91.0204 398.659 90.1675 399.361L92.7093 402.45ZM78.1619 407.852C77.2209 408.43 76.9269 409.662 77.5053 410.603C78.0837 411.544 79.3154 411.838 80.2565 411.26L78.1619 407.852ZM66.9265 418.535C67.9196 418.052 68.3327 416.855 67.8491 415.862C67.3656 414.869 66.1685 414.456 65.1754 414.939L66.9265 418.535ZM51.5854 420.919C50.5592 421.328 50.0586 422.491 50.4673 423.517C50.876 424.543 52.0392 425.044 53.0654 424.635L51.5854 420.919ZM38.8575 429.794C39.9062 429.447 40.4751 428.316 40.1282 427.267C39.7813 426.219 38.65 425.65 37.6013 425.997L38.8575 429.794ZM23.3417 430.303C22.2765 430.595 21.6502 431.696 21.9427 432.761C22.2351 433.826 23.3357 434.453 24.4009 434.16L23.3417 430.303ZM9.75923 437.791C10.8379 437.553 11.5195 436.485 11.2816 435.407C11.0437 434.328 9.97647 433.647 8.89782 433.884L9.75923 437.791ZM0 444.214C0 445.319 0.89543 446.214 2 446.214C3.10457 446.214 4 445.319 4 444.214H0ZM4 457.993C4 456.889 3.10457 455.993 2 455.993C0.89543 455.993 0 456.889 0 457.993H4ZM0 471.773C0 472.877 0.89543 473.773 2 473.773C3.10457 473.773 4 472.877 4 471.773H0ZM4 485.552C4 484.447 3.10457 483.552 2 483.552C0.89543 483.552 0 484.447 0 485.552H4ZM0 499.331C0 500.436 0.89543 501.331 2 501.331C3.10457 501.331 4 500.436 4 499.331H0ZM4 513.11C4 512.006 3.10457 511.11 2 511.11C0.89543 511.11 0 512.006 0 513.11H4ZM9.95833 522C11.0629 522 11.9583 521.105 11.9583 520C11.9583 518.895 11.0629 518 9.95833 518V522ZM25.875 518C24.7704 518 23.875 518.895 23.875 520C23.875 521.105 24.7704 522 25.875 522V518ZM41.7917 522C42.8962 522 43.7917 521.105 43.7917 520C43.7917 518.895 42.8962 518 41.7917 518V522ZM57.7083 518C56.6038 518 55.7083 518.895 55.7083 520C55.7083 521.105 56.6038 522 57.7083 522V518ZM73.625 522C74.7296 522 75.625 521.105 75.625 520C75.625 518.895 74.7296 518 73.625 518V522ZM89.5417 518C88.4371 518 87.5417 518.895 87.5417 520C87.5417 521.105 88.4371 522 89.5417 522V518ZM105.458 522C106.563 522 107.458 521.105 107.458 520C107.458 518.895 106.563 518 105.458 518V522ZM121.375 518C120.27 518 119.375 518.895 119.375 520C119.375 521.105 120.27 522 121.375 522V518ZM137.292 522C138.396 522 139.292 521.105 139.292 520C139.292 518.895 138.396 518 137.292 518V522ZM153.208 518C152.104 518 151.208 518.895 151.208 520C151.208 521.105 152.104 522 153.208 522V518ZM169.125 522C170.23 522 171.125 521.105 171.125 520C171.125 518.895 170.23 518 169.125 518V522ZM185.042 518C183.937 518 183.042 518.895 183.042 520C183.042 521.105 183.937 522 185.042 522V518ZM200.958 522C202.063 522 202.958 521.105 202.958 520C202.958 518.895 202.063 518 200.958 518V522ZM216.875 518C215.77 518 214.875 518.895 214.875 520C214.875 521.105 215.77 522 216.875 522V518ZM232.792 522C233.896 522 234.792 521.105 234.792 520C234.792 518.895 233.896 518 232.792 518V522ZM248.708 518C247.604 518 246.708 518.895 246.708 520C246.708 521.105 247.604 522 248.708 522V518ZM264.625 522C265.73 522 266.625 521.105 266.625 520C266.625 518.895 265.73 518 264.625 518V522ZM280.542 518C279.437 518 278.542 518.895 278.542 520C278.542 521.105 279.437 522 280.542 522V518ZM296.458 522C297.563 522 298.458 521.105 298.458 520C298.458 518.895 297.563 518 296.458 518V522ZM312.375 518C311.27 518 310.375 518.895 310.375 520C310.375 521.105 311.27 522 312.375 522V518ZM328.292 522C329.396 522 330.292 521.105 330.292 520C330.292 518.895 329.396 518 328.292 518V522ZM344.208 518C343.104 518 342.208 518.895 342.208 520C342.208 521.105 343.104 522 344.208 522V518ZM360.125 522C361.23 522 362.125 521.105 362.125 520C362.125 518.895 361.23 518 360.125 518V522ZM376.042 518C374.937 518 374.042 518.895 374.042 520C374.042 521.105 374.937 522 376.042 522V518ZM386 513.027C386 511.922 385.105 511.027 384 511.027C382.895 511.027 382 511.922 382 513.027H386ZM382 499.081C382 500.185 382.895 501.081 384 501.081C385.105 501.081 386 500.185 386 499.081H382ZM386 485.134C386 484.03 385.105 483.134 384 483.134C382.895 483.134 382 484.03 382 485.134H386ZM382 471.188C382 472.293 382.895 473.188 384 473.188C385.105 473.188 386 472.293 386 471.188H382ZM386 457.242C386 456.137 385.105 455.242 384 455.242C382.895 455.242 382 456.137 382 457.242H386ZM382 443.296C382 444.4 382.895 445.296 384 445.296C385.105 445.296 386 444.4 386 443.296H382ZM377.555 432.831C376.481 432.572 375.401 433.233 375.141 434.306C374.882 435.38 375.542 436.461 376.616 436.72L377.555 432.831ZM362.81 433.006C363.87 433.319 364.982 432.715 365.296 431.656C365.609 430.596 365.004 429.484 363.945 429.17L362.81 433.006ZM350.522 424.83C349.48 424.463 348.338 425.01 347.971 426.052C347.604 427.093 348.151 428.235 349.193 428.603L350.522 424.83ZM335.822 423.456C336.841 423.884 338.013 423.405 338.441 422.387C338.869 421.369 338.391 420.196 337.373 419.768L335.822 423.456ZM324.611 413.866C323.627 413.364 322.423 413.755 321.921 414.739C321.419 415.724 321.81 416.928 322.794 417.43L324.611 413.866ZM310.283 410.306C311.214 410.901 312.451 410.629 313.046 409.698C313.64 408.767 313.368 407.53 312.437 406.936L310.283 410.306ZM301.209 398.708C300.367 397.992 299.105 398.094 298.39 398.936C297.674 399.777 297.776 401.04 298.618 401.755L301.209 398.708ZM288.437 391.308C289.12 392.177 290.377 392.328 291.246 391.645C292.114 390.963 292.265 389.706 291.583 388.837L288.437 391.308ZM284.293 376.316C283.862 375.299 282.687 374.825 281.671 375.256C280.654 375.688 280.18 376.862 280.611 377.879L284.293 376.316ZM275.529 362.462C275.804 363.532 276.894 364.177 277.964 363.902C279.033 363.627 279.678 362.537 279.403 361.468L275.529 362.462ZM276.206 346.028C276.027 344.938 274.998 344.2 273.908 344.379C272.818 344.558 272.08 345.587 272.259 346.677L276.206 346.028ZM270.193 330.734C270.299 331.834 271.276 332.639 272.375 332.533C273.475 332.428 274.28 331.45 274.174 330.351L270.193 330.734ZM123.998 321.442C122.545 319.416 121.104 317.352 119.677 315.254L116.37 317.504C117.815 319.629 119.276 321.72 120.748 323.773L123.998 321.442ZM111.491 302.557C108.895 298.305 106.372 293.94 103.943 289.479L100.43 291.392C102.891 295.913 105.447 300.334 108.077 304.642L111.491 302.557ZM97.0604 276.039C94.8912 271.52 92.8295 266.924 90.8936 262.263L87.1995 263.797C89.164 268.526 91.2552 273.189 93.4544 277.77L97.0604 276.039ZM85.506 248.171C83.8479 243.423 82.3325 238.626 80.9774 233.792L77.1259 234.872C78.5045 239.789 80.0452 244.667 81.7296 249.49L85.506 248.171ZM77.4036 219.16C76.3807 214.231 75.5388 209.281 74.8961 204.322L70.9293 204.836C71.5856 209.9 72.4446 214.95 73.4871 219.973L77.4036 219.16ZM73.5798 189.348C73.4668 186.844 73.4091 184.341 73.4091 181.841H69.4091C69.4091 184.402 69.4682 186.965 69.5839 189.529L73.5798 189.348ZM73.4091 181.841C73.4091 179.321 73.4458 176.813 73.5185 174.319L69.5202 174.202C69.4464 176.735 69.4091 179.282 69.4091 181.841H73.4091ZM74.3984 159.314C74.8443 154.274 75.4379 149.301 76.1726 144.403L72.2168 143.809C71.4701 148.788 70.867 153.842 70.414 158.961L74.3984 159.314ZM78.8606 129.63C79.9242 124.675 81.1352 119.813 82.486 115.053L78.638 113.961C77.2632 118.805 76.0313 123.751 74.9497 128.79L78.8606 129.63ZM87.0699 100.762C88.7835 95.9909 90.6432 91.3456 92.6405 86.8381L88.9834 85.2177C86.9464 89.8148 85.0509 94.5497 83.3053 99.41L87.0699 100.762ZM99.2305 73.3795C101.638 68.9143 104.191 64.6185 106.877 60.5061L103.528 58.3188C100.779 62.5275 98.1694 66.9199 95.7098 71.4809L99.2305 73.3795ZM115.615 48.3673C118.767 44.3963 122.059 40.6517 125.478 37.1506L122.616 34.356C119.098 37.9588 115.716 41.8065 112.482 45.8806L115.615 48.3673ZM136.477 27.0886C140.391 23.909 144.434 21.0267 148.591 18.4615L146.49 15.0575C142.18 17.7171 137.997 20.7004 133.955 23.984L136.477 27.0886ZM161.742 11.5827C166.311 9.60576 170.988 7.99641 175.756 6.7772L174.765 2.90189C169.786 4.17499 164.91 5.85367 160.154 7.91161L161.742 11.5827ZM190.343 4.31033C192.791 4.10442 195.259 4 197.744 4V0C195.147 0 192.567 0.109143 190.008 0.324407L190.343 4.31033ZM197.744 4C200.229 4 202.696 4.10442 205.144 4.31034L205.48 0.324408C202.92 0.109143 200.341 0 197.744 0V4ZM219.732 6.77721C224.5 7.99642 229.177 9.60576 233.745 11.5827L235.334 7.91161C230.578 5.85368 225.702 4.17499 220.723 2.90189L219.732 6.77721ZM246.897 18.4615C251.054 21.0267 255.097 23.909 259.01 27.0886L261.533 23.984C257.491 20.7004 253.307 17.7171 248.997 15.0575L246.897 18.4615ZM270.01 37.1506C273.429 40.6517 276.72 44.3963 279.872 48.3673L283.005 45.8806C279.772 41.8065 276.39 37.9588 272.872 34.356L270.01 37.1506ZM288.611 60.5061C291.297 64.6185 293.849 68.9143 296.257 73.3795L299.778 71.4809C297.318 66.9199 294.709 62.5275 291.96 58.3187L288.611 60.5061ZM302.847 86.8381C304.844 91.3455 306.704 95.9909 308.418 100.762L312.182 99.41C310.437 94.5497 308.541 89.8148 306.504 85.2177L302.847 86.8381ZM313.002 115.053C314.352 119.813 315.563 124.675 316.627 129.63L320.538 128.79C319.456 123.751 318.224 118.805 316.85 113.961L313.002 115.053ZM319.315 144.403C320.05 149.301 320.643 154.274 321.089 159.314L325.074 158.961C324.621 153.842 324.017 148.788 323.271 143.809L319.315 144.403ZM321.969 174.319C322.042 176.813 322.078 179.321 322.078 181.841H326.078C326.078 179.282 326.041 176.735 325.967 174.202L321.969 174.319ZM322.078 181.841C322.078 184.35 322.018 186.863 321.901 189.377L325.896 189.564C326.017 186.989 326.078 184.414 326.078 181.841H322.078ZM320.531 204.403C319.863 209.377 318.988 214.342 317.925 219.284L321.836 220.125C322.919 215.086 323.812 210.018 324.495 204.936L320.531 204.403ZM314.217 233.945C312.814 238.783 311.245 243.585 309.528 248.337L313.291 249.695C315.034 244.866 316.63 239.983 318.059 235.06L314.217 233.945ZM303.961 262.424C301.964 267.079 299.838 271.67 297.602 276.182L301.186 277.958C303.453 273.383 305.61 268.726 307.637 264.002L303.961 262.424ZM290.52 289.589C288.024 294.035 285.434 298.384 282.769 302.622L286.155 304.751C288.854 300.458 291.479 296.052 294.008 291.547L290.52 289.589ZM274.381 315.264C272.921 317.352 271.446 319.404 269.961 321.421L273.18 323.794C274.686 321.751 276.18 319.671 277.659 317.557L274.381 315.264ZM120.748 323.773C122.371 326.036 124.008 328.253 125.656 330.423L128.841 328.003C127.215 325.863 125.6 323.675 123.998 321.442L120.748 323.773ZM136.029 343.295C139.753 347.645 143.491 351.729 147.202 355.517L150.059 352.717C146.414 348.997 142.737 344.979 139.068 340.694L136.029 343.295ZM159.274 366.881C163.827 370.799 168.272 374.194 172.525 376.998L174.727 373.659C170.64 370.964 166.33 367.675 161.883 363.849L159.274 366.881ZM187.586 384.666C190.642 385.673 193.551 386.224 196.246 386.224V382.224C194.083 382.224 191.605 381.779 188.839 380.867L187.586 384.666ZM196.246 386.224C198.953 386.224 201.892 385.668 204.989 384.652L203.743 380.852C200.929 381.774 198.421 382.224 196.246 382.224V386.224ZM220.236 376.981C224.552 374.181 229.075 370.791 233.716 366.881L231.138 363.822C226.603 367.644 222.213 370.93 218.059 373.626L220.236 376.981ZM246.042 355.535C249.838 351.751 253.666 347.67 257.483 343.324L254.477 340.685C250.716 344.967 246.948 348.983 243.218 352.702L246.042 355.535ZM268.133 330.45C269.827 328.279 271.511 326.059 273.18 323.794L269.961 321.421C268.313 323.656 266.651 325.847 264.979 327.989L268.133 330.45ZM122.373 322.607C120.379 322.452 120.379 322.452 120.379 322.452V322.452C120.379 322.452 120.379 322.452 120.379 322.452C120.379 322.453 120.379 322.453 120.379 322.453C120.379 322.455 120.379 322.456 120.379 322.459C120.378 322.464 120.377 322.472 120.377 322.483C120.375 322.505 120.372 322.539 120.368 322.584C120.361 322.674 120.35 322.81 120.334 322.988C120.303 323.345 120.254 323.874 120.187 324.555C120.052 325.918 119.841 327.89 119.536 330.315L123.505 330.814C123.814 328.35 124.03 326.343 124.167 324.949C124.236 324.252 124.286 323.709 124.319 323.338C124.335 323.152 124.347 323.01 124.355 322.913C124.359 322.865 124.362 322.828 124.364 322.802C124.365 322.79 124.366 322.78 124.366 322.773C124.366 322.77 124.367 322.767 124.367 322.765C124.367 322.764 124.367 322.764 124.367 322.763C124.367 322.763 124.367 322.763 124.367 322.762C124.367 322.762 124.367 322.762 124.367 322.762C124.367 322.762 124.367 322.762 122.373 322.607ZM117.052 346.019C116.104 350.954 114.917 356.243 113.445 361.463L117.294 362.549C118.804 357.195 120.016 351.792 120.98 346.773L117.052 346.019ZM108.212 376.299C107.113 378.767 105.928 381.083 104.653 383.188L108.074 385.26C109.451 382.986 110.712 380.518 111.866 377.927L108.212 376.299ZM104.653 383.188C103.424 385.216 102.032 387.182 100.494 389.084L103.606 391.598C105.247 389.567 106.745 387.455 108.074 385.26L104.653 383.188ZM90.1675 399.361C86.4726 402.402 82.429 405.229 78.1619 407.852L80.2565 411.26C84.6531 408.557 88.8506 405.625 92.7093 402.45L90.1675 399.361ZM65.1754 414.939C60.6877 417.124 56.1165 419.114 51.5854 420.919L53.0654 424.635C57.6753 422.799 62.3383 420.77 66.9265 418.535L65.1754 414.939ZM37.6013 425.997C32.536 427.672 27.7148 429.102 23.3417 430.303L24.4009 434.16C28.8312 432.944 33.7188 431.494 38.8575 429.794L37.6013 425.997ZM8.89782 433.884C6.61501 434.388 4.79902 434.756 3.55667 434.998C2.93553 435.119 2.45788 435.209 2.13709 435.268C1.97669 435.297 1.85552 435.319 1.77524 435.333C1.7351 435.34 1.70518 435.346 1.6857 435.349C1.67595 435.351 1.66882 435.352 1.66432 435.353C1.66207 435.353 1.66048 435.353 1.65955 435.354C1.65909 435.354 1.65879 435.354 1.65866 435.354C1.65859 435.354 1.65856 435.354 1.65858 435.354C1.65859 435.354 1.65863 435.354 1.65864 435.354C1.65869 435.354 1.65875 435.354 2 437.324C2.34125 439.295 2.34133 439.295 2.34143 439.295C2.34147 439.295 2.34158 439.295 2.34167 439.295C2.34185 439.295 2.34208 439.295 2.34234 439.295C2.34287 439.295 2.34357 439.295 2.34444 439.294C2.34617 439.294 2.34856 439.294 2.35161 439.293C2.35772 439.292 2.36646 439.291 2.37783 439.289C2.40055 439.285 2.43374 439.279 2.47719 439.271C2.56407 439.256 2.69198 439.233 2.85923 439.202C3.19373 439.14 3.68566 439.048 4.3216 438.924C5.59343 438.677 7.44171 438.302 9.75923 437.791L8.89782 433.884ZM0 437.324V444.214H4V437.324H0ZM0 457.993V471.773H4V457.993H0ZM0 485.552V499.331H4V485.552H0ZM0 513.11V520H4V513.11H0ZM2 522H9.95833V518H2V522ZM25.875 522H41.7917V518H25.875V522ZM57.7083 522H73.625V518H57.7083V522ZM89.5417 522H105.458V518H89.5417V522ZM121.375 522H137.292V518H121.375V522ZM153.208 522H169.125V518H153.208V522ZM185.042 522H200.958V518H185.042V522ZM216.875 522H232.792V518H216.875V522ZM248.708 522H264.625V518H248.708V522ZM280.542 522H296.458V518H280.542V522ZM312.375 522H328.292V518H312.375V522ZM344.208 522H360.125V518H344.208V522ZM376.042 522H384V518H376.042V522ZM386 520V513.027H382V520H386ZM386 499.081V485.134H382V499.081H386ZM386 471.188V457.242H382V471.188H386ZM386 443.296V436.322H382V443.296H386ZM384 436.322C384.381 434.359 384.381 434.359 384.381 434.359C384.381 434.359 384.381 434.359 384.381 434.359C384.381 434.359 384.381 434.359 384.381 434.359C384.381 434.359 384.38 434.359 384.38 434.359C384.379 434.359 384.378 434.358 384.375 434.358C384.371 434.357 384.365 434.356 384.355 434.354C384.337 434.35 384.309 434.345 384.271 434.337C384.196 434.322 384.081 434.299 383.93 434.269C383.628 434.207 383.177 434.113 382.592 433.987C381.42 433.734 379.707 433.351 377.555 432.831L376.616 436.72C378.803 437.248 380.548 437.638 381.749 437.897C382.349 438.026 382.814 438.123 383.13 438.188C383.288 438.22 383.408 438.244 383.491 438.261C383.532 438.269 383.563 438.275 383.585 438.279C383.595 438.281 383.604 438.283 383.609 438.284C383.612 438.285 383.615 438.285 383.616 438.285C383.617 438.285 383.618 438.286 383.618 438.286C383.619 438.286 383.619 438.286 383.619 438.286C383.619 438.286 383.619 438.286 383.619 438.286C383.619 438.286 383.619 438.286 384 436.322ZM363.945 429.17C359.827 427.952 355.288 426.509 350.522 424.83L349.193 428.603C354.031 430.307 358.636 431.771 362.81 433.006L363.945 429.17ZM337.373 419.768C333.115 417.979 328.823 416.013 324.611 413.866L322.794 417.43C327.105 419.627 331.488 421.633 335.822 423.456L337.373 419.768ZM312.437 406.936C308.442 404.383 304.66 401.642 301.209 398.708L298.618 401.755C302.229 404.825 306.161 407.672 310.283 410.306L312.437 406.936ZM291.583 388.837C290.154 387.017 288.861 385.141 287.723 383.209L284.277 385.239C285.512 387.336 286.907 389.359 288.437 391.308L291.583 388.837ZM287.723 383.209C286.483 381.103 285.342 378.786 284.293 376.316L280.611 377.879C281.714 380.478 282.932 382.955 284.277 385.239L287.723 383.209ZM279.403 361.468C278.063 356.248 277.018 350.961 276.206 346.028L272.259 346.677C273.085 351.696 274.153 357.103 275.529 362.462L279.403 361.468ZM274.174 330.351C273.942 327.933 273.79 325.967 273.696 324.609C273.649 323.93 273.617 323.403 273.597 323.047C273.587 322.869 273.58 322.734 273.575 322.644C273.573 322.599 273.571 322.566 273.57 322.544C273.569 322.533 273.569 322.525 273.569 322.52C273.568 322.517 273.568 322.516 273.568 322.514C273.568 322.514 273.568 322.514 273.568 322.513C273.568 322.513 273.568 322.513 273.568 322.513V322.513C273.568 322.513 273.568 322.513 271.57 322.607C269.573 322.701 269.573 322.701 269.573 322.701C269.573 322.701 269.573 322.701 269.573 322.701C269.573 322.701 269.573 322.702 269.573 322.702C269.573 322.703 269.573 322.703 269.573 322.704C269.573 322.706 269.573 322.709 269.573 322.712C269.574 322.719 269.574 322.729 269.575 322.741C269.576 322.767 269.578 322.804 269.58 322.852C269.585 322.948 269.593 323.091 269.604 323.276C269.625 323.646 269.658 324.188 269.706 324.883C269.801 326.274 269.956 328.276 270.193 330.734L274.174 330.351Z" fill="#00DF7D"/>
</svg>
